<svg clip-rule="evenodd" fill-rule="evenodd" stroke-linecap="round" stroke-linejoin="round" viewBox="0 0 1000.6 280" xmlns="http://www.w3.org/2000/svg"><g fill-rule="evenodd"><g fill="#fff"><path d="m343.387 247.658h-55.957c-12.402-19.433-23.608-36.23-33.618-50.391-10.01-14.16-20.874-28.759-32.593-43.798h-21.24v65.918c0 3.418.537 6.421 1.611 9.008 1.075 2.588 3.369 4.566 6.885 5.933 1.758.684 4.834 1.318 9.229 1.904 4.394.586 8.105.928 11.132 1.026v10.4h-87.89v-10.4c2.344-.196 5.737-.537 10.18-1.026 4.444-.488 7.544-1.123 9.302-1.904 2.93-1.27 5.054-3.125 6.372-5.566 1.319-2.442 1.978-5.567 1.978-9.375v-150.2933c0-3.4179-.488-6.4453-1.465-9.082s-3.271-4.6387-6.885-6.0058c-2.441-.879-5.615-1.6846-9.521-2.417-3.907-.7325-7.227-1.1963-9.961-1.3916v-10.4004h95.947c8.789 0 17.041.9033 24.756 2.7099 7.715 1.8067 14.697 4.7119 20.947 8.7159 6.055 3.9062 10.889 9.0087 14.502 15.3076 3.613 6.2988 5.42 13.8916 5.42 22.7783 0 8.0075-1.221 15.0874-3.662 21.2404-2.441 6.152-6.055 11.474-10.84 15.967-4.394 4.199-9.668 7.836-15.82 10.913-6.153 3.076-12.94 5.688-20.362 7.837 10.254 13.574 18.775 25 25.562 34.277s15.112 20.557 24.976 33.838c4.296 5.859 8.178 10.18 11.645 12.964 3.467 2.783 6.909 5.053 10.327 6.811 2.539 1.27 5.713 2.246 9.522 2.93 3.808.683 6.982 1.074 9.521 1.172zm-77.051-154.9803c0-12.5976-3.613-22.583-10.839-29.956-7.227-7.3731-17.432-11.0596-30.616-11.0596h-24.902v89.2089h19.189c13.477 0 24.707-4.321 33.692-12.964 8.984-8.642 13.476-20.386 13.476-35.2293z"/><path d="m402.801 247.658h-69.873v-9.668c2.246-.195 4.566-.39 6.958-.586 2.393-.195 4.468-.586 6.226-1.172 2.734-.879 4.761-2.417 6.079-4.614s1.977-5.054 1.977-8.569v-89.209c0-3.125-.708-5.982-2.124-8.57-1.416-2.587-3.393-4.76-5.932-6.518-1.856-1.172-4.541-2.173-8.057-3.003-3.515-.83-6.738-1.343-9.668-1.538v-9.522l50.977-3.222 2.051 2.05v117.774c0 3.418.659 6.25 1.977 8.496s3.394 3.906 6.226 4.98c2.148.879 4.248 1.587 6.299 2.124 2.05.538 4.345.904 6.884 1.099zm-18.457-203.1736c0 5.5664-1.831 10.4248-5.493 14.5752s-8.179 6.2256-13.55 6.2256c-4.98 0-9.301-1.9776-12.964-5.9327-3.662-3.955-5.493-8.4716-5.493-13.5498 0-5.3711 1.831-10.0586 5.493-14.0625 3.663-4.0039 7.984-6.0058 12.964-6.0058 5.567 0 10.132 1.8799 13.697 5.6396 3.564 3.7598 5.346 8.1299 5.346 13.1104z"/><path d="m563.729 245.021-50.391 3.223-2.197-2.051v-13.476l-1.172-.293c-5.078 5.664-11.352 10.302-18.823 13.916-7.471 3.613-15.161 5.42-23.071 5.42-8.203 0-16.138-1.831-23.804-5.494-7.666-3.662-14.331-8.813-19.995-15.454-5.762-6.738-10.327-14.843-13.696-24.316-3.37-9.473-5.054-19.922-5.054-31.348 0-10.449 1.807-20.361 5.42-29.736s8.594-17.578 14.941-24.609c5.957-6.543 13.257-11.768 21.9-15.674 8.642-3.906 17.456-5.8599 26.44-5.8599 6.738 0 13.355.8549 19.849 2.5639s12.085 3.882 16.772 6.518v-50.2436c0-4.1015-.683-7.8369-2.051-11.206-1.367-3.3692-3.271-5.9327-5.713-7.6905-2.734-1.8554-6.42-3.1982-11.059-4.0283s-9.644-1.4404-15.015-1.831v-9.0821l59.033-3.3691 2.198 2.1973v194.8243c0 3.418.659 6.323 1.977 8.716 1.319 2.392 3.247 4.419 5.786 6.079 1.856 1.172 4.541 1.904 8.057 2.197s6.738.488 9.668.586zm-52.881-25.341v-84.522c-.781-2.539-2.051-5.273-3.808-8.203-1.758-2.93-3.956-5.615-6.592-8.057-2.832-2.441-6.153-4.467-9.961-6.079-3.809-1.611-8.252-2.417-13.33-2.417-5.86 0-11.255 1.514-16.187 4.541-4.931 3.028-9.302 7.373-13.11 13.037-3.613 5.469-6.47 12.427-8.569 20.874-2.1 8.448-3.15 17.798-3.15 28.052 0 8.203.781 15.65 2.344 22.339 1.562 6.689 4.199 12.915 7.91 18.677 3.418 5.469 7.788 9.863 13.11 13.183 5.323 3.321 11.646 4.981 18.97 4.981 7.813 0 14.282-1.709 19.409-5.127s9.449-7.178 12.964-11.279z"/><path d="m705.467 112.16c-4.394.781-8.569 2.368-12.524 4.761-3.955 2.392-7.349 6.616-10.181 12.671-5.762 13.086-11.719 26.733-17.871 40.942s-12.549 29.126-19.189 44.751c-1.953 4.492-4.029 9.815-6.226 15.967s-4.224 12.06-6.079 17.724h-11.426c-9.277-22.949-17.822-43.872-25.635-62.768-7.812-18.897-15.918-38.257-24.316-58.081-1.953-4.492-5.103-7.984-9.448-10.474-4.346-2.49-8.716-4.077-13.111-4.761v-9.667h66.797v10.253c-2.929.098-6.591.708-10.986 1.831-4.395 1.124-6.592 2.662-6.592 4.615 0 .293.244 1.05.733 2.27.488 1.221.976 2.613 1.464 4.175 4.004 9.961 9.668 23.877 16.993 41.748 7.324 17.871 13.281 32.275 17.871 43.213 3.515-8.398 7.934-18.848 13.257-31.348 5.322-12.5 11.059-26.465 17.211-41.894.977-2.637 1.905-5.103 2.784-7.398s1.318-4.614 1.318-6.958c0-1.66-.806-3.149-2.417-4.467-1.611-1.319-3.54-2.466-5.786-3.443-2.246-.976-4.443-1.709-6.592-2.197-2.148-.488-3.906-.83-5.273-1.025v-9.375h55.224z"/><path d="m833.583 245.021c-4.59 1.661-8.619 3.003-12.085 4.029-3.467 1.025-7.398 1.538-11.792 1.538-7.618 0-13.697-1.782-18.238-5.347-4.541-3.564-7.446-8.765-8.716-15.6h-.878c-6.348 7.031-13.16 12.402-20.435 16.113s-16.04 5.566-26.294 5.566c-10.84 0-19.751-3.32-26.733-9.961-6.983-6.64-10.474-15.332-10.474-26.074 0-5.566.781-10.547 2.344-14.941 1.562-4.395 3.906-8.35 7.031-11.866 2.441-2.929 5.664-5.542 9.668-7.837 4.004-2.294 7.764-4.125 11.279-5.493 4.395-1.66 13.306-4.736 26.734-9.228 13.427-4.492 22.485-8.008 27.173-10.547v-14.502c0-1.27-.269-3.711-.806-7.324-.537-3.614-1.685-7.031-3.443-10.254-1.953-3.613-4.711-6.763-8.276-9.448-3.564-2.686-8.618-4.029-15.161-4.029-4.492 0-8.667.757-12.524 2.271-3.858 1.513-6.568 3.1-8.13 4.761 0 1.953.464 4.834 1.391 8.642.928 3.809 1.392 7.324 1.392 10.547 0 3.418-1.538 6.543-4.614 9.375-3.077 2.832-7.349 4.248-12.818 4.248-4.883 0-8.471-1.733-10.766-5.2s-3.443-7.349-3.443-11.646c0-4.492 1.587-8.789 4.761-12.89 3.174-4.102 7.3-7.764 12.378-10.987 4.394-2.734 9.717-5.053 15.967-6.958 6.25-1.904 12.353-2.8559 18.31-2.8559 8.203 0 15.357.561 21.46 1.6849 6.104 1.123 11.646 3.54 16.626 7.25 4.981 3.614 8.765 8.521 11.353 14.722s3.882 14.185 3.882 23.95c0 13.965-.147 26.343-.44 37.134s-.439 22.583-.439 35.376c0 3.809.659 6.836 1.977 9.082 1.319 2.246 3.345 4.151 6.079 5.713 1.465.879 3.784 1.367 6.958 1.465s6.421.146 9.742.146zm-51.124-77.343c-8.3 2.441-15.576 4.834-21.826 7.177-6.25 2.344-12.06 5.274-17.431 8.789-4.883 3.321-8.741 7.251-11.573 11.792s-4.248 9.937-4.248 16.187c0 8.105 2.124 14.062 6.372 17.871s9.644 5.713 16.187 5.713c6.934 0 13.037-1.685 18.31-5.054 5.274-3.369 9.717-7.348 13.331-11.938zm11.866-133.887c0 3.7109-.855 6.7383-2.564 9.082-1.709 2.3438-4.223 4.834-7.544 7.4707-4.883 3.9063-11.255 8.8868-19.116 14.9415-7.861 6.0546-16.333 12.6464-25.415 19.7753l-5.566-4.6875c8.789-12.9882 14.917-22.1435 18.383-27.4658 3.467-5.3222 7.203-11.206 11.206-17.6513 3.028-4.9805 5.958-8.3741 8.79-10.1807 2.832-1.8067 6.103-2.71 9.814-2.71 3.516 0 6.396 1.1963 8.643 3.5889 2.246 2.3926 3.369 5.0049 3.369 7.8369z"/><path d="m992.462 247.658h-70.754v-9.668c2.246-.195 4.711-.39 7.397-.586 2.686-.195 4.907-.586 6.665-1.172 2.734-.879 4.761-2.417 6.079-4.614s1.978-5.054 1.978-8.569v-74.268c0-10.254-2.417-18.164-7.251-23.73-4.834-5.567-10.718-8.35-17.652-8.35-5.175 0-9.912.806-14.209 2.417s-8.105 3.589-11.425 5.933c-3.223 2.246-5.787 4.663-7.691 7.251s-3.296 4.663-4.175 6.225v83.057c0 3.32.684 6.055 2.051 8.203s3.418 3.809 6.152 4.98c2.051.977 4.273 1.709 6.665 2.198 2.393.488 4.859.83 7.398 1.025v9.668h-70.752v-9.668c2.246-.195 4.565-.39 6.958-.586 2.393-.195 4.468-.586 6.226-1.172 2.734-.879 4.76-2.417 6.079-4.614 1.318-2.197 1.977-5.054 1.977-8.569v-89.209c0-3.321-.708-6.372-2.124-9.156-1.416-2.783-3.393-5.053-5.932-6.811-1.856-1.172-4.053-2.026-6.592-2.564-2.539-.537-5.274-.903-8.203-1.098v-9.522l48.047-3.222 2.05 2.05v20.362h.733c2.343-2.344 5.273-5.152 8.789-8.423 3.515-3.272 6.836-5.933 9.961-7.983 3.613-2.344 7.91-4.297 12.89-5.86 4.981-1.562 10.596-2.3439 16.846-2.3439 13.867 0 24.146 4.3219 30.835 12.9639 6.689 8.643 10.034 20.142 10.034 34.497v75.147c0 3.418.586 6.177 1.758 8.276 1.172 2.1 3.174 3.736 6.006 4.907 2.344.977 4.37 1.661 6.079 2.051 1.709.391 4.077.684 7.107.879z"/></g><g stroke="#000" stroke-linecap="round" stroke-linejoin="round" stroke-width="1.85"><path d="m87.059 117.609s-3.0909-.532-1.8634-4.567c1.1322-3.722 3.4517-7.611 7.4531-8.329 11.1653-2.004 12.8403-3.545 19.9383-8.7209 5.217-3.8044 8.46-4.6286 9.842-9.8704 1.1-4.1707 19.054-13.1311 15.888-10.1668-4.714 4.4122-.95 19.1756-14.951 29.3851-7.553 5.507-19.172 7.774-28.2733 8.694-7.7703.785-8.0337 3.575-8.0337 3.575z" fill="#47b34f"/><path d="m29.3433 58.4807c-6.4158-21.1663 8.1945-14.9258 29.2854-20.2469 21.0909-5.3214 40.676-20.1894 47.0913.9771 6.416 21.1666-5.48 42.6392-26.5716 47.9603-5.2871 1.3338-10.6365 4.9609-15.8058 4.1669-15.4532-2.3737-29.192-16.9968-33.9993-32.8574z" fill="#ffc5c5"/><g fill="#0a8113"><path d="m20.4994 229.062s10.2734 53.949 63.9315 28.49c22.6061-10.725 38.2721-44.269 45.7551-86.806 11.647-66.212-30.137-88.9767-30.137-88.9767s45.658 18.1578 40.705 89.4427c-.978 14.075-3.642 27.599-7.852 39.889-11.824 34.528-35.8383 59.322-68.8832 59.263-39.7018-.071-43.5194-41.302-43.5194-41.302z"/><path d="m81.1597 191.511s-32.5523 24.249.5685 33.884c13.9535 4.059 40.8888-3.073 71.2858-16.578 47.315-21.022 49.683-44.746 49.683-44.746s1.854 23.365-46.784 48.731c-9.603 5.008-19.354 9.199-28.758 12.364-26.419 8.89-50.1022 9.682-60.0939-2.245-12.0044-14.331 14.0986-31.41 14.0986-31.41z"/><path d="m83.224 157.049s-22.9045 20.135 7.4087 23.833c12.7713 1.558 34.3653-5.986 57.6203-18.347 36.198-19.241 33.378-36.187 33.378-36.187s6.36 16.298-30.082 38.725c-7.195 4.428-14.684 8.294-22.085 11.403-20.794 8.736-40.9005 11.507-51.8887 4.032-13.2015-8.981 5.6487-23.459 5.6487-23.459z"/><path d="m71.1005 121.772s-25.7506 21.041 8.33 24.905c14.3582 1.628 38.6355-6.255 64.7805-19.172 40.696-20.106 37.526-37.8142 37.526-37.8142s7.15 17.0312-33.821 40.4662c-8.089 4.628-16.508 8.667-24.83 11.916-23.3773 9.129-45.9824 12.025-58.336 4.214-14.8419-9.385 6.3505-24.515 6.3505-24.515z"/></g><path d="m47.0035 83.4805c-17.4037-19.6822-28.0521-11.431-12.4017-11.376 8.2762.0294 16.2793 1.0073 34.0567 20.2608 17.7777 19.2537 27.0392 5.5278 21.6922 13.7337-5.346 8.205-30.2115-7.7629-43.3472-22.6185z" fill="#fc9d9d"/><path d="m49.383 45.8578c-6.4158-21.1665-4.8111-14.0427 16.2798-19.364 21.0909-5.3212 32.0109-23.87879 38.4272-2.7123 6.416 21.1666 2.151 38.7306-18.9405 44.052-5.2869 1.3338-10.6362 4.9609-15.8058 4.1666-15.453-2.3736-15.1534-10.2817-19.9607-26.1423z" fill="#ffc5c5"/><path d="m102.209 50.6687c-3.7753-27.7388 3.669-.9192 8.029-7.8345 3.906-6.1946 8.369-6.1835 9.784-7.4557 4.208-3.7842 4.879-14.2631 5.788-17.5693.624-2.267 1.334-1.2191 3.474 7.8997 5.524 23.5393.48 57.7804-6.614 64.1593s-16.608-10.8849-20.461-39.1995z" fill="#fff"/><path d="m101.958 40.5992c.278-1.5942.685-3.0556 1.06-4.1798 2.156-6.4644 5.846-6.1338 10.319-10.2586 5.37-4.9525 13.924-14.1272 14.572-6.141.956 11.793-1.273 18.0931-6.902 18.1333-1.824.0131-8.437 10.7431-12.73 9.6007-1.302-.3465-2.114-2.4952-3.348-3.9331-1.487-1.734-3.227-1.7556-2.971-3.2215z" fill="#fff"/><path d="m20.5131 140.342c-11.57478-15.574-19.15558-11.391-3.5629-7.876 8.2459 1.859 15.9155 4.23 27.4903 19.804 11.5745 15.574 25.2017 9.352 17.2447 13.114-5.7603 2.723-15.2975 6.729-26.3899-2.801-4.2301-3.634-11.587-17.942-14.7822-22.241z" fill="#fc9d9d"/><path d="m68.2496 51.1855c-12.8747-21.5626 5.8978-2.2858 11.5234-9.8568 5.039-6.7818 12.4807-8.621 14.5367-10.2678 6.1163-4.8976 4.747-13.9117 5.478-17.0446.5013-2.1482 1.9343-1.5687 7.6643 5.1474 14.793 17.3373 14.514 47.9731 4.204 56.2288s-30.2643-2.1968-43.4064-24.207z" fill="#ff9090"/><path d="m50.0749 77.1196c-12.8316-13.9036-21.435-9.4039-19.8854-11.6133 1.5492-2.2096 5.0827-10.3712 17.9146 3.5324 12.8316 13.9036 28.3737 13.2443 26.8244 15.4537-1.5495 2.2096-12.0217 6.5308-24.8536-7.3728z" fill="#fc9d9d"/><path d="m39.8972 93.317c-1.3912 10.987 6.6111 31.278-8.5843 16.799-14.4159-13.7359-15.2058-46.3411 8.6965-37.795 7.2979 2.6092 28.1081 13.7855 26.872 15.8942-.7727 1.3182-5.3719-3.2511-10.2238-5.5897-2.9091-1.4023-16.3031 7.0804-16.7604 10.6915z" fill="#ffc5c5"/><path d="m32.2699 66.6397c-5.9264 6.9042-7.6187 23.4338-14.1915 3.5928-4.7946-14.4734 15.7881-20.5965 20.2255-15.0013 4.4377 5.5952 27.1108 29.5569 24.7143 30.6187-1.4981.6639-13.6081-13.349-19.0363-16.2169-1.4361-.7588-3.5059-1.8725-5.5377-2.6853-2.5734-1.0293-5.0858-1.576-6.1743-.308z" fill="#ffc5c5"/><path d="m87.1813 22.689c-3.4871-19.92875 3.9974-11.1538 14.6467-10.9885 10.649.1652 20.428-8.34177 23.916 11.587 3.487 19.9289-2.318 35.9503-12.967 35.7852-2.669-.0416-5.345 1.9034-7.978.0322-7.8703-5.5934-15.0043-21.4825-17.6177-36.4159z" fill="#ffc5c5"/><path d="m54.926 74.7334c-17.4614-24.4015 9.4607-3.3133 19.1323-12.896 8.6634-8.5837 20.4744-11.5192 23.8754-13.6866 10.1153-6.4468 15.1273-19.624 16.6423-23.4296 1.038-2.6094-2.861.5125 5.257 7.9409 20.957 19.1753 16.84 55.7023-.21 66.569-17.05 10.8669-46.8729.41-64.697-24.4977z" fill="#fc9d9d"/><path d="m133.357 45.7109c-5.718-18.8634 1.803-20.1837-4.174-8.1707-3.161 6.3527-9.679 11.2103-3.962 30.0737 5.718 18.8637-2.705 23.7752 4.697 21.9078 7.402-1.8677 9.157-24.9471 3.439-43.8108z" fill="#fc9d9d"/><path d="m56.7776 94.8439c-8.9338-12.211 9.8648-1.8531 22.2419-7.2381 11.0872-4.8235 22.9595-6.4604 26.8675-7.6768 11.621-3.6176 14.585-9.5924 17.377-11.7342 1.913-1.4687 3.686-1.1573 8.35 3.0393 12.041 10.8333-5.234 31.4059-24.823 37.5039-19.5904 6.098-39.6587.259-50.0134-13.8941z" fill="#ff9b9b"/><path d="m48.2753 64.5413c.3078-1.8062.9953-3.5669 1.6872-4.9635 3.9786-8.0327 13.8707-10.2415 24.6394-17.5025 12.9296-8.7177 40.8601-31.4063 44.3301-19.5019 3.469 11.9044-5.759 22.4357-20.7053 26.3576-4.843 1.2708-19.5082 16.6954-31.224 18.4981-3.5538.547-6.2936-1.0686-9.96-1.6741-4.4217-.7306-9.0502.4472-8.7674-1.2137z" fill="#ffc5c5"/><path d="m63.5423 41.7916c.0853-1.4445.418-2.8314.776-3.924 2.0587-6.2823 8.2864-7.5345 14.7625-12.8258 7.7759-6.3531 19.8549-20.97114 22.8302-11.1547 2.976 9.8165 2.173 15.6115-7.2003 17.9764-3.037.7662-11.511 12.4503-18.9376 13.2756-2.2523.2504-4.1163-1.2043-6.5135-1.8925-2.8907-.8296-5.7958-.1272-5.7173-1.455z" fill="#ffc5c5"/><path d="m87.2203 117.601c-.9322.607.0385-1.954 1.266-5.989 1.1324-3.722 4.2124-5.468 8.2134-6.186 11.1653-2.004 12.8403-3.545 19.9383-8.7209 5.217-3.8045 8.46-4.6287 9.842-9.8705 1.1-4.1706 15.051-13.2656 11.885-10.3014-4.714 4.4122 3.053 19.3099-10.948 29.5198-7.553 5.507-19.172 7.774-28.2733 8.694-7.77.785-5.641-1.236-11.9234 2.854z" fill="#47b34f"/><path d="m51.9868 88.7229c.7104-2.0058 4.1758-2.026 5.1797-3.3858 5.7745-7.8197 16.1737-6.2568 28.5765-10.298 14.892-4.8522 39.915-19.1363 40.737-3.5948.822 15.5418-2.761 23.3429-18.604 21.6725-5.133-.5413-23.2577 11.5092-35.3931 8.6962-3.6808-.853-6.0646-3.9189-9.6019-6.1829-4.2655-2.73-11.5477-5.0626-10.8942-6.9072z" fill="#ffc5c5"/><path d="m109.009 113.076s2.28-4.61 5.875-4.691c4.812-.108 5.694-.845 9.259-3.18 2.62-1.716 4.049-1.888 5.291-4.802.989-2.3179 7.582-5.617 7.582-5.617s-2.657 12.261-9.688 16.867c-3.793 2.484-8.825 2.702-12.655 2.376-3.27-.278-5.664-.953-5.664-.953z" fill="#0a8114"/><path d="m137.254 42.6531c10.731-1.1533 15.139 11.603 10.316-3.2107-6.998-21.4932-29.395-23.5099-26.773-14.8565 1.722 5.6788 5.136 13.6545 1.395 28.4279-2.554 10.085 1.866 10.5293 1.866 10.5293s5.096-20.0196 13.196-20.89z" fill="#ffc5c5"/><path d="m95.1867 117.327s-1.038-4.287 4.9463-8.282c5.984-3.996 11.973-3.492 18.989-7.7 1.647-.988 2.822-1.6589 3.703-2.1919 2.874-1.738 2.617-2 5.374-6.9406 4.849-8.6921 9.28-10.5458 9.28-10.5458s-2.352 4.1723 1.012 15.5424c1.14 3.8509-9.417 12.9639-15.697 13.2619-6.281.298-10.001 10.267-13.419 7.415-5.535-4.618-14.1883-.559-14.1883-.559z" fill="#0a8114"/></g></g></svg>
